<svg width="123" height="37" viewBox="0 0 123 37" fill="none" xmlns="http://www.w3.org/2000/svg">
<path d="M27.2233 5.28613C25.4794 8.57823 23.8152 17.0309 31.1097 24.5049C33.7505 21.628 36.6703 13.7566 27.2233 5.28613Z" fill="black"/>
<path d="M33.0888 32.1922C31.9259 28.3687 33.9545 18.959 50.8559 8.53833C49.6068 16.7038 44.2013 32.1922 33.0888 32.1922Z" fill="black"/>
<path d="M29.1523 33.2045C10.5296 35.2909 -0.373246 14.6061 0.252769 3.32202C2.03987 3.62166 11.6194 7.32961 21.1609 16.7574C30.233 27.6069 32.9387 32.7804 29.1523 33.2045Z" fill="black"/>
<path d="M60.7548 31.5251V17.4322H65.3318C66.2685 17.4322 67.1059 17.5812 67.8439 17.8792C68.5819 18.1631 69.1638 18.5747 69.5895 19.114C70.0153 19.6533 70.2282 20.3132 70.2282 21.0938C70.2282 22.0163 69.994 22.7898 69.5257 23.4142C69.0573 24.0245 68.4045 24.4858 67.5671 24.798C66.7298 25.096 65.7576 25.245 64.6506 25.245H62.8198V31.5251H60.7548ZM62.8198 24.6277H64.7145C65.4383 24.6277 66.0202 24.5 66.4601 24.2445C66.9001 23.989 67.2336 23.6697 67.4607 23.2865C67.6878 22.9033 67.8368 22.5201 67.9078 22.1369C67.9929 21.7537 68.0355 21.4415 68.0355 21.2002C68.0355 21.1151 68.0142 20.9448 67.9716 20.6893C67.9432 20.4339 67.851 20.1429 67.6949 19.8165C67.5529 19.4901 67.3188 19.1778 66.9923 18.8798C66.6801 18.5818 66.2402 18.3547 65.6725 18.1986C65.2325 18.1986 64.7358 18.234 64.1823 18.305C63.6288 18.376 63.1746 18.4611 62.8198 18.5605V24.6277ZM71.6133 31.5251V16.9851H73.4016V31.5251H71.6133ZM82.3755 31.8019L80.6512 30.2478C80.1402 30.7162 79.6364 31.0923 79.1397 31.3761C78.6571 31.6458 78.1249 31.7806 77.5431 31.7806C76.9612 31.7806 76.4361 31.589 75.9677 31.2058C75.4994 30.8226 75.2652 30.2762 75.2652 29.5666C75.2652 29.0131 75.4497 28.5519 75.8187 28.1829C76.1877 27.7997 76.656 27.4945 77.2237 27.2675C77.7914 27.0404 78.3804 26.8701 78.9907 26.7565C79.6009 26.643 80.1473 26.572 80.6299 26.5436V24.5425C80.6299 23.3646 79.9487 22.7756 78.5862 22.7756C78.2314 22.7756 77.8198 22.8182 77.3515 22.9033C76.8973 22.9743 76.3864 23.102 75.8187 23.2865L75.6271 22.7543C75.7832 22.6266 76.0458 22.4775 76.4148 22.3072C76.7838 22.1369 77.2095 21.9879 77.6921 21.8602C78.1746 21.7183 78.6642 21.6473 79.161 21.6473C79.9699 21.6473 80.5944 21.7679 81.0344 22.0092C81.4743 22.2363 81.7866 22.5343 81.9711 22.9033C82.1556 23.2581 82.2691 23.6342 82.3117 24.0316C82.3542 24.4148 82.3755 24.7625 82.3755 25.0747V28.6938C82.3755 29.1763 82.4394 29.5737 82.5671 29.8859C82.7091 30.1982 82.8652 30.4394 83.0355 30.6097C83.22 30.7801 83.369 30.9078 83.4825 30.9929L82.3755 31.8019ZM78.352 30.8013C78.6926 30.7304 79.0332 30.5956 79.3739 30.3969C79.7287 30.184 80.0267 29.9711 80.268 29.7582C80.5092 29.5311 80.6299 29.3679 80.6299 29.2686V27.0759C79.5655 27.1468 78.7139 27.381 78.0753 27.7784C77.4508 28.1616 77.1386 28.5731 77.1386 29.0131C77.1386 29.4531 77.2521 29.8363 77.4792 30.1627C77.7205 30.4749 78.0114 30.6878 78.352 30.8013ZM85.2815 31.5251V24.8406C85.2815 24.3438 85.2105 23.9465 85.0686 23.6484C84.9408 23.3362 84.7918 23.0949 84.6215 22.9246C84.4512 22.7401 84.3093 22.6053 84.1958 22.5201L85.2815 21.7112L87.0271 23.2652C87.5522 22.7685 88.0419 22.3782 88.496 22.0944C88.9644 21.7963 89.5108 21.6473 90.1352 21.6473C90.4617 21.6473 90.8165 21.7325 91.1997 21.9028C91.597 22.0731 91.9377 22.3924 92.2215 22.8607C92.5054 23.3149 92.6473 23.9819 92.6473 24.8619V31.5251H90.8378V25.0747C90.8378 24.4077 90.7171 23.8968 90.4758 23.542C90.2488 23.173 89.823 22.9885 89.1985 22.9885C88.5883 22.9885 87.8858 23.3859 87.091 24.1806V31.5251H85.2815ZM97.7813 31.7806C97.1995 31.7806 96.7098 31.6103 96.3124 31.2697C95.9151 30.9291 95.7164 30.3543 95.7164 29.5453V22.6691L93.992 22.3285V21.9028H95.7164V21.1364L97.5046 19.8378V21.9028H100.038V22.6691H97.5046V29.6518C97.5046 30.0491 97.5826 30.3614 97.7388 30.5885C97.9091 30.8155 98.2213 30.9291 98.6755 30.9291C98.8741 30.9291 99.0941 30.9007 99.3354 30.8439C99.5767 30.773 99.8108 30.6949 100.038 30.6097V31.2058C99.7257 31.3477 99.3709 31.4755 98.9735 31.589C98.5903 31.7167 98.1929 31.7806 97.7813 31.7806ZM100.448 36.2086L100.746 34.6546C101.541 34.6262 102.215 34.4488 102.769 34.1223C103.336 33.7959 103.812 33.3843 104.195 32.8876C104.578 32.4051 104.89 31.9154 105.132 31.4187L100.81 21.9028H102.705L105.962 29.1196L108.474 21.9028H109.283L105.642 31.8445C105.33 32.696 104.912 33.4482 104.386 34.1011C103.861 34.7539 103.258 35.2648 102.577 35.6338C101.91 36.0028 101.2 36.1944 100.448 36.2086ZM110.956 22.3498L110.359 18.603V17.1129H112.084V18.603L111.466 22.3498H110.956ZM113.336 31.5251L116.87 27.0333L113.4 21.9028H115.508L117.935 25.7773L120.787 21.9028H121.83L118.339 26.2243L122.15 31.5251H120.042L117.296 27.5016L114.358 31.5251H113.336Z" fill="black"/>
</svg>
